<?xml version="1.0" encoding="UTF-8"?>
<!-- Generator: Adobe Illustrator 24.0.0, SVG Export Plug-In . SVG Version: 6.00 Build 0)  -->
<svg version="1.1" id="Layer_1" xmlns="http://www.w3.org/2000/svg" xmlns:xlink="http://www.w3.org/1999/xlink" x="0px" y="0px" viewBox="0 0 400 400" style="enable-background:new 0 0 400 400;" xml:space="preserve">
<style type="text/css">
	.st0{fill:#07B7CC;}
</style>
<g>
	<g id="Artwork_3_">
		<g>
			<g>
				<g>
					<path class="st0" d="M163.27,225.55c9.4,0.03,18.03-2.42,27.22-3.63c6.41-0.85,12.96-0.75,19.35,0.28l64.57,12.63       c3.88,0.68,6.45,4.44,5.65,8.33c-0.76,3.67-4.68,6.08-8.37,5.43l-63.1-12.15c-3.53-0.62-6.89,1.79-7.41,5.37       c-0.5,3.45,2.03,6.63,5.46,7.23l63.25,11.14c3.88,0.68,6.45,4.45,5.65,8.33c-0.76,3.67-4.68,6.08-8.37,5.43l-63.34-11.15       c-3.51-0.62-7.1,1.99-7.48,5.53c-0.39,3.65,3.08,6.64,6.59,7.25l62.5,10.3c3.68,0.65,6.4,3.99,5.99,7.7       c-0.45,4.07-4.23,6.85-8.19,6.15c0,0-64.54-11.67-64.7-11.69c-9.91-1.83-18.82-5.15-26.6-11.67       c-8.37-7.02-15.41-15.65-24.52-21.78c-22.54-15.18-77.66-12.59-67.25,26.67c4.44,16.75,20.94,27.94,35.43,35.52       c22.16,11.58,45.96,18.84,70.86,21.38c0.05,0.01,0.09,0.01,0.14,0.01c30.15,3.07,63.01,0.29,90.08-14.9       c29.58-16.59,49.67-48.49,43.72-83.14c-0.6-3.49-1.47-6.93-2.64-10.27c-6.81-19.46-21.99-35.39-40.42-44.34       c-9.77-4.75-20.53-7.44-31.4-7.57c-11.49-0.13-21.3,3.45-32.04,6.88c-7.29,2.33-14.97,3.4-22.62,3.38       c-15.75-0.03-31.19-5.02-44.15-13.92c-7.23-4.97-13.17-11.22-16.85-19.36c-5.95-13.14-3.1-26.68,7.77-36.32       c8.52-7.56,18.75-11.35,29.85-12.82c18.63-2.47,36.25,0.88,52.56,10.26c11.94,6.86,18.45,19.51,29.91,27.12       c12.26,8.13,27.89,12.95,42.59,10.61c11.92-1.9,22.81-10.2,26.07-22.09c5.16-18.83-10.27-33.87-24.96-42.52       c-57.61-33.92-154.86-46.38-200.7,13.69c-0.22,0.29-0.44,0.58-0.65,0.86c-13.57,18.27-18.07,44.99-10.53,66.49       C93.91,203.64,128.32,225.44,163.27,225.55z"/>
				</g>
			</g>
		</g>
	</g>
	<path class="st0" d="M200,11.34c104.03,0,188.66,84.63,188.66,188.66S304.03,388.66,200,388.66S11.34,304.03,11.34,200   S95.97,11.34,200,11.34 M200,0C89.54,0,0,89.54,0,200s89.54,200,200,200s200-89.54,200-200S310.46,0,200,0L200,0z"/>
</g>
</svg>